<mxfile host="Electron" agent="Mozilla/5.0 (Windows NT 10.0; Win64; x64) AppleWebKit/537.36 (KHTML, like Gecko) draw.io/24.7.17 Chrome/128.0.6613.36 Electron/32.0.1 Safari/537.36" version="24.7.17">
  <diagram name="Página-1" id="p9K0cnw3e_TJKJsx_78d">
    <mxGraphModel dx="1434" dy="836" grid="1" gridSize="10" guides="1" tooltips="1" connect="1" arrows="1" fold="1" page="1" pageScale="1" pageWidth="827" pageHeight="1169" math="0" shadow="0">
      <root>
        <mxCell id="0" />
        <mxCell id="1" parent="0" />
        <mxCell id="ljnqEVNHBfvt-kOhfmYu-6" value="" style="rounded=0;whiteSpace=wrap;html=1;" vertex="1" parent="1">
          <mxGeometry x="120" y="40" width="1120" height="680" as="geometry" />
        </mxCell>
        <mxCell id="YERbZWsGb_3LJ_n3Qa9_-2" value="" style="rounded=1;whiteSpace=wrap;html=1;" parent="1" vertex="1">
          <mxGeometry x="180" y="170" width="130" height="360" as="geometry" />
        </mxCell>
        <mxCell id="YERbZWsGb_3LJ_n3Qa9_-6" value="" style="rounded=0;whiteSpace=wrap;html=1;" parent="1" vertex="1">
          <mxGeometry x="340" y="170" width="190" height="360" as="geometry" />
        </mxCell>
        <mxCell id="YERbZWsGb_3LJ_n3Qa9_-7" value="" style="rounded=0;whiteSpace=wrap;html=1;" parent="1" vertex="1">
          <mxGeometry x="560" y="170" width="200" height="360" as="geometry" />
        </mxCell>
        <mxCell id="YERbZWsGb_3LJ_n3Qa9_-8" value="" style="rounded=0;whiteSpace=wrap;html=1;fillColor=#E6E6E6;strokeColor=#CCCCCC;" parent="1" vertex="1">
          <mxGeometry x="790" y="170" width="230" height="360" as="geometry" />
        </mxCell>
        <mxCell id="5H7elzML800JX2GymNLW-93" style="edgeStyle=orthogonalEdgeStyle;rounded=0;orthogonalLoop=1;jettySize=auto;html=1;entryX=1.001;entryY=0.845;entryDx=0;entryDy=0;entryPerimeter=0;dashed=1;strokeColor=#CCCCCC;" parent="1" source="YERbZWsGb_3LJ_n3Qa9_-9" target="YERbZWsGb_3LJ_n3Qa9_-11" edge="1">
          <mxGeometry relative="1" as="geometry">
            <Array as="points">
              <mxPoint x="1140" y="612" />
            </Array>
          </mxGeometry>
        </mxCell>
        <mxCell id="YERbZWsGb_3LJ_n3Qa9_-9" value="" style="rounded=1;whiteSpace=wrap;html=1;strokeColor=#CCCCCC;" parent="1" vertex="1">
          <mxGeometry x="1054" y="175" width="130" height="360" as="geometry" />
        </mxCell>
        <mxCell id="YERbZWsGb_3LJ_n3Qa9_-10" value="" style="rounded=1;whiteSpace=wrap;html=1;" parent="1" vertex="1">
          <mxGeometry x="560" y="80" width="200" height="60" as="geometry" />
        </mxCell>
        <mxCell id="YERbZWsGb_3LJ_n3Qa9_-59" style="edgeStyle=orthogonalEdgeStyle;rounded=0;orthogonalLoop=1;jettySize=auto;html=1;strokeColor=#CCCCCC;" parent="1" source="YERbZWsGb_3LJ_n3Qa9_-11" target="YERbZWsGb_3LJ_n3Qa9_-9" edge="1">
          <mxGeometry relative="1" as="geometry">
            <Array as="points">
              <mxPoint x="1110" y="590" />
            </Array>
          </mxGeometry>
        </mxCell>
        <mxCell id="YERbZWsGb_3LJ_n3Qa9_-11" value="" style="rounded=0;whiteSpace=wrap;html=1;fillColor=#E6E6E6;strokeColor=#CCCCCC;" parent="1" vertex="1">
          <mxGeometry x="340" y="570" width="710" height="50" as="geometry" />
        </mxCell>
        <mxCell id="YERbZWsGb_3LJ_n3Qa9_-12" value="Web browser" style="text;html=1;strokeColor=none;fillColor=none;align=center;verticalAlign=middle;whiteSpace=wrap;rounded=0;" parent="1" vertex="1">
          <mxGeometry x="190" y="180" width="110" height="30" as="geometry" />
        </mxCell>
        <mxCell id="YERbZWsGb_3LJ_n3Qa9_-13" value="Capa de presentación" style="text;html=1;strokeColor=none;fillColor=none;align=center;verticalAlign=middle;whiteSpace=wrap;rounded=0;" parent="1" vertex="1">
          <mxGeometry x="362" y="180" width="145" height="30" as="geometry" />
        </mxCell>
        <mxCell id="YERbZWsGb_3LJ_n3Qa9_-14" value="Capa de servicios" style="text;html=1;strokeColor=none;fillColor=none;align=center;verticalAlign=middle;whiteSpace=wrap;rounded=0;" parent="1" vertex="1">
          <mxGeometry x="589" y="180" width="145" height="30" as="geometry" />
        </mxCell>
        <mxCell id="YERbZWsGb_3LJ_n3Qa9_-15" value="Otros sistemas" style="text;html=1;strokeColor=none;fillColor=none;align=center;verticalAlign=middle;whiteSpace=wrap;rounded=0;" parent="1" vertex="1">
          <mxGeometry x="587" y="82" width="145" height="30" as="geometry" />
        </mxCell>
        <mxCell id="YERbZWsGb_3LJ_n3Qa9_-16" value="Capa de Integración" style="text;html=1;strokeColor=none;fillColor=none;align=center;verticalAlign=middle;whiteSpace=wrap;rounded=0;" parent="1" vertex="1">
          <mxGeometry x="829" y="178" width="145" height="30" as="geometry" />
        </mxCell>
        <mxCell id="YERbZWsGb_3LJ_n3Qa9_-55" value="" style="endArrow=classic;html=1;rounded=0;" parent="1" edge="1">
          <mxGeometry width="50" height="50" relative="1" as="geometry">
            <mxPoint x="420" y="530" as="sourcePoint" />
            <mxPoint x="420" y="590" as="targetPoint" />
          </mxGeometry>
        </mxCell>
        <mxCell id="YERbZWsGb_3LJ_n3Qa9_-56" value="" style="endArrow=classic;html=1;rounded=0;" parent="1" edge="1">
          <mxGeometry width="50" height="50" relative="1" as="geometry">
            <mxPoint x="630" y="530" as="sourcePoint" />
            <mxPoint x="630" y="590" as="targetPoint" />
          </mxGeometry>
        </mxCell>
        <mxCell id="YERbZWsGb_3LJ_n3Qa9_-57" value="" style="endArrow=classic;html=1;rounded=0;exitX=0.41;exitY=0.972;exitDx=0;exitDy=0;exitPerimeter=0;strokeColor=#CCCCCC;" parent="1" edge="1">
          <mxGeometry width="50" height="50" relative="1" as="geometry">
            <mxPoint x="896.6000000000001" y="513.92" as="sourcePoint" />
            <mxPoint x="897" y="590" as="targetPoint" />
          </mxGeometry>
        </mxCell>
        <mxCell id="YERbZWsGb_3LJ_n3Qa9_-58" value="" style="endArrow=classic;html=1;rounded=0;" parent="1" edge="1">
          <mxGeometry width="50" height="50" relative="1" as="geometry">
            <mxPoint x="640" y="130" as="sourcePoint" />
            <mxPoint x="640" y="170" as="targetPoint" />
          </mxGeometry>
        </mxCell>
        <mxCell id="YERbZWsGb_3LJ_n3Qa9_-61" value="&lt;font color=&quot;#cccccc&quot;&gt;RDBMS&lt;br&gt;BPM IBM&lt;br&gt;FIEL&lt;br&gt;RENAPO&lt;br&gt;IDC&lt;br&gt;Colas de mensajeS&lt;br&gt;Otros sistemas&lt;/font&gt;" style="text;html=1;strokeColor=none;fillColor=none;align=center;verticalAlign=middle;whiteSpace=wrap;rounded=0;" parent="1" vertex="1">
          <mxGeometry x="1065" y="281" width="110" height="140" as="geometry" />
        </mxCell>
        <mxCell id="YERbZWsGb_3LJ_n3Qa9_-75" value="" style="endArrow=classicThin;dashed=1;html=1;rounded=0;startArrow=none;startFill=0;endFill=1;" parent="1" edge="1">
          <mxGeometry width="50" height="50" relative="1" as="geometry">
            <mxPoint x="659.5" y="590" as="sourcePoint" />
            <mxPoint x="659.5" y="530" as="targetPoint" />
          </mxGeometry>
        </mxCell>
        <mxCell id="YERbZWsGb_3LJ_n3Qa9_-77" value="" style="endArrow=classicThin;dashed=1;html=1;rounded=0;startArrow=none;startFill=0;endFill=1;" parent="1" edge="1">
          <mxGeometry width="50" height="50" relative="1" as="geometry">
            <mxPoint x="450" y="590" as="sourcePoint" />
            <mxPoint x="450" y="530" as="targetPoint" />
          </mxGeometry>
        </mxCell>
        <mxCell id="YERbZWsGb_3LJ_n3Qa9_-78" value="" style="endArrow=classicThin;dashed=1;html=1;rounded=0;startArrow=none;startFill=0;endFill=1;exitX=0.563;exitY=-0.084;exitDx=0;exitDy=0;exitPerimeter=0;" parent="1" edge="1">
          <mxGeometry width="50" height="50" relative="1" as="geometry">
            <mxPoint x="670.635" y="170.48000000000002" as="sourcePoint" />
            <mxPoint x="670" y="123" as="targetPoint" />
          </mxGeometry>
        </mxCell>
        <mxCell id="YERbZWsGb_3LJ_n3Qa9_-79" value="Servicios de infraestructura" style="text;html=1;strokeColor=none;fillColor=none;align=center;verticalAlign=middle;whiteSpace=wrap;rounded=0;" parent="1" vertex="1">
          <mxGeometry x="602" y="597" width="170" height="20" as="geometry" />
        </mxCell>
        <mxCell id="5H7elzML800JX2GymNLW-2" value="" style="rounded=0;whiteSpace=wrap;html=1;" parent="1" vertex="1">
          <mxGeometry x="212" y="335" width="65" height="30" as="geometry" />
        </mxCell>
        <mxCell id="5H7elzML800JX2GymNLW-3" value="HTML" style="text;html=1;strokeColor=none;fillColor=none;align=center;verticalAlign=middle;whiteSpace=wrap;rounded=0;" parent="1" vertex="1">
          <mxGeometry x="215" y="336" width="60" height="30" as="geometry" />
        </mxCell>
        <mxCell id="5H7elzML800JX2GymNLW-4" value="" style="rounded=0;whiteSpace=wrap;html=1;strokeColor=#CCCCCC;" parent="1" vertex="1">
          <mxGeometry x="350" y="213" width="170" height="297" as="geometry" />
        </mxCell>
        <mxCell id="5H7elzML800JX2GymNLW-5" value="" style="rounded=0;whiteSpace=wrap;html=1;strokeColor=#CCCCCC;" parent="1" vertex="1">
          <mxGeometry x="362" y="230" width="148" height="170" as="geometry" />
        </mxCell>
        <mxCell id="5H7elzML800JX2GymNLW-6" value="" style="rounded=0;whiteSpace=wrap;html=1;strokeColor=#CCCCCC;" parent="1" vertex="1">
          <mxGeometry x="362" y="430" width="148" height="70" as="geometry" />
        </mxCell>
        <mxCell id="5H7elzML800JX2GymNLW-7" value="" style="rounded=0;whiteSpace=wrap;html=1;strokeColor=#CCCCCC;" parent="1" vertex="1">
          <mxGeometry x="370" y="250" width="130" height="140" as="geometry" />
        </mxCell>
        <mxCell id="5H7elzML800JX2GymNLW-8" value="" style="rounded=0;whiteSpace=wrap;html=1;" parent="1" vertex="1">
          <mxGeometry x="376" y="265" width="120" height="55" as="geometry" />
        </mxCell>
        <mxCell id="5H7elzML800JX2GymNLW-10" value="" style="rounded=0;whiteSpace=wrap;html=1;" parent="1" vertex="1">
          <mxGeometry x="390" y="277.5" width="90" height="30" as="geometry" />
        </mxCell>
        <mxCell id="5H7elzML800JX2GymNLW-11" value="" style="rounded=0;whiteSpace=wrap;html=1;" parent="1" vertex="1">
          <mxGeometry x="406" y="340" width="60" height="30" as="geometry" />
        </mxCell>
        <mxCell id="5H7elzML800JX2GymNLW-12" value="" style="rounded=0;whiteSpace=wrap;html=1;" parent="1" vertex="1">
          <mxGeometry x="404.5" y="450" width="60" height="30" as="geometry" />
        </mxCell>
        <mxCell id="5H7elzML800JX2GymNLW-48" style="edgeStyle=orthogonalEdgeStyle;rounded=0;orthogonalLoop=1;jettySize=auto;html=1;entryX=0.5;entryY=1;entryDx=0;entryDy=0;dashed=1;" parent="1" source="5H7elzML800JX2GymNLW-13" target="5H7elzML800JX2GymNLW-3" edge="1">
          <mxGeometry relative="1" as="geometry" />
        </mxCell>
        <mxCell id="5H7elzML800JX2GymNLW-13" value="JSP&amp;nbsp;&lt;br&gt;&lt;font style=&quot;font-size: 9px;&quot;&gt;Error page&lt;/font&gt;" style="text;html=1;strokeColor=none;fillColor=none;align=center;verticalAlign=middle;whiteSpace=wrap;rounded=0;" parent="1" vertex="1">
          <mxGeometry x="407" y="458" width="57" height="15" as="geometry" />
        </mxCell>
        <mxCell id="5H7elzML800JX2GymNLW-14" value="Layout manager" style="text;html=1;strokeColor=none;fillColor=none;align=center;verticalAlign=middle;whiteSpace=wrap;rounded=0;" parent="1" vertex="1">
          <mxGeometry x="406" y="340" width="60" height="30" as="geometry" />
        </mxCell>
        <mxCell id="5H7elzML800JX2GymNLW-15" value="&lt;font style=&quot;font-size: 6px;&quot;&gt;Exception handler&lt;/font&gt;" style="text;html=1;strokeColor=none;fillColor=none;align=center;verticalAlign=middle;whiteSpace=wrap;rounded=0;" parent="1" vertex="1">
          <mxGeometry x="357" y="259" width="90" height="20" as="geometry" />
        </mxCell>
        <mxCell id="5H7elzML800JX2GymNLW-43" style="edgeStyle=orthogonalEdgeStyle;rounded=0;orthogonalLoop=1;jettySize=auto;html=1;exitX=0.5;exitY=1;exitDx=0;exitDy=0;entryX=0.5;entryY=1;entryDx=0;entryDy=0;" parent="1" source="5H7elzML800JX2GymNLW-16" target="5H7elzML800JX2GymNLW-8" edge="1">
          <mxGeometry relative="1" as="geometry" />
        </mxCell>
        <mxCell id="5H7elzML800JX2GymNLW-53" style="edgeStyle=orthogonalEdgeStyle;rounded=0;orthogonalLoop=1;jettySize=auto;html=1;entryX=0;entryY=0.75;entryDx=0;entryDy=0;dashed=1;endArrow=none;endFill=0;startArrow=classic;startFill=1;" parent="1" source="5H7elzML800JX2GymNLW-16" target="5H7elzML800JX2GymNLW-28" edge="1">
          <mxGeometry relative="1" as="geometry">
            <Array as="points">
              <mxPoint x="528" y="300" />
              <mxPoint x="528" y="311" />
            </Array>
          </mxGeometry>
        </mxCell>
        <mxCell id="5H7elzML800JX2GymNLW-16" value="Front controller&amp;nbsp;" style="text;html=1;strokeColor=none;fillColor=none;align=center;verticalAlign=middle;whiteSpace=wrap;rounded=0;" parent="1" vertex="1">
          <mxGeometry x="387" y="277.5" width="93" height="30" as="geometry" />
        </mxCell>
        <mxCell id="5H7elzML800JX2GymNLW-17" value="&lt;font color=&quot;#cccccc&quot; style=&quot;font-size: 6px;&quot;&gt;Stripes 1.5.3&lt;/font&gt;" style="text;html=1;strokeColor=none;fillColor=none;align=center;verticalAlign=middle;whiteSpace=wrap;rounded=0;" parent="1" vertex="1">
          <mxGeometry x="359" y="249" width="60" height="10" as="geometry" />
        </mxCell>
        <mxCell id="5H7elzML800JX2GymNLW-18" value="&lt;font color=&quot;#cccccc&quot; style=&quot;font-size: 6px;&quot;&gt;Java Servlet 2.5&lt;/font&gt;" style="text;html=1;strokeColor=none;fillColor=none;align=center;verticalAlign=middle;whiteSpace=wrap;rounded=0;" parent="1" vertex="1">
          <mxGeometry x="356" y="219" width="60" height="30" as="geometry" />
        </mxCell>
        <mxCell id="5H7elzML800JX2GymNLW-19" value="&lt;font color=&quot;#cccccc&quot; style=&quot;font-size: 6px;&quot;&gt;JEE 5/JSE 6&lt;/font&gt;" style="text;html=1;strokeColor=none;fillColor=none;align=center;verticalAlign=middle;whiteSpace=wrap;rounded=0;" parent="1" vertex="1">
          <mxGeometry x="339" y="202" width="60" height="30" as="geometry" />
        </mxCell>
        <mxCell id="5H7elzML800JX2GymNLW-20" value="&lt;span style=&quot;font-size: 6px;&quot;&gt;&lt;br&gt;&lt;font color=&quot;#cccccc&quot;&gt;JSP 2.1&lt;/font&gt;&lt;/span&gt;" style="text;html=1;strokeColor=none;fillColor=none;align=center;verticalAlign=middle;whiteSpace=wrap;rounded=0;" parent="1" vertex="1">
          <mxGeometry x="344.5" y="412" width="60" height="30" as="geometry" />
        </mxCell>
        <mxCell id="5H7elzML800JX2GymNLW-24" value="" style="rounded=0;whiteSpace=wrap;html=1;strokeColor=#CCCCCC;" parent="1" vertex="1">
          <mxGeometry x="569.5" y="219" width="180.5" height="297" as="geometry" />
        </mxCell>
        <mxCell id="5H7elzML800JX2GymNLW-25" value="" style="rounded=0;whiteSpace=wrap;html=1;strokeColor=#CCCCCC;" parent="1" vertex="1">
          <mxGeometry x="622" y="230" width="76.5" height="28" as="geometry" />
        </mxCell>
        <mxCell id="5H7elzML800JX2GymNLW-54" style="edgeStyle=orthogonalEdgeStyle;rounded=0;orthogonalLoop=1;jettySize=auto;html=1;entryX=0.25;entryY=0;entryDx=0;entryDy=0;startArrow=none;startFill=0;endArrow=classic;endFill=1;" parent="1" source="5H7elzML800JX2GymNLW-26" target="5H7elzML800JX2GymNLW-28" edge="1">
          <mxGeometry relative="1" as="geometry">
            <Array as="points">
              <mxPoint x="590" y="240" />
            </Array>
          </mxGeometry>
        </mxCell>
        <mxCell id="5H7elzML800JX2GymNLW-26" value="&lt;font color=&quot;#cccccc&quot; style=&quot;font-size: 9px;&quot;&gt;End point&amp;nbsp;&lt;br&gt;(Adapter)&lt;/font&gt;" style="text;html=1;strokeColor=none;fillColor=none;align=center;verticalAlign=middle;whiteSpace=wrap;rounded=0;" parent="1" vertex="1">
          <mxGeometry x="622" y="229" width="80" height="31" as="geometry" />
        </mxCell>
        <mxCell id="5H7elzML800JX2GymNLW-27" value="" style="rounded=0;whiteSpace=wrap;html=1;" parent="1" vertex="1">
          <mxGeometry x="577" y="289" width="56" height="30" as="geometry" />
        </mxCell>
        <mxCell id="5H7elzML800JX2GymNLW-52" style="edgeStyle=orthogonalEdgeStyle;rounded=0;orthogonalLoop=1;jettySize=auto;html=1;startArrow=classicThin;startFill=1;endArrow=none;endFill=0;" parent="1" source="5H7elzML800JX2GymNLW-28" target="5H7elzML800JX2GymNLW-16" edge="1">
          <mxGeometry relative="1" as="geometry">
            <Array as="points">
              <mxPoint x="540" y="303" />
              <mxPoint x="540" y="290" />
            </Array>
          </mxGeometry>
        </mxCell>
        <mxCell id="5H7elzML800JX2GymNLW-55" style="edgeStyle=orthogonalEdgeStyle;rounded=0;orthogonalLoop=1;jettySize=auto;html=1;entryX=0;entryY=0.75;entryDx=0;entryDy=0;dashed=1;" parent="1" source="5H7elzML800JX2GymNLW-28" target="5H7elzML800JX2GymNLW-26" edge="1">
          <mxGeometry relative="1" as="geometry">
            <Array as="points">
              <mxPoint x="602" y="252" />
            </Array>
          </mxGeometry>
        </mxCell>
        <mxCell id="5H7elzML800JX2GymNLW-28" value="&lt;font style=&quot;font-size: 9px;&quot;&gt;Business service&lt;/font&gt;" style="text;html=1;strokeColor=none;fillColor=none;align=center;verticalAlign=middle;whiteSpace=wrap;rounded=0;" parent="1" vertex="1">
          <mxGeometry x="575" y="290" width="60" height="30" as="geometry" />
        </mxCell>
        <mxCell id="5H7elzML800JX2GymNLW-29" value="" style="rounded=0;whiteSpace=wrap;html=1;strokeColor=#CCCCCC;" parent="1" vertex="1">
          <mxGeometry x="679" y="295" width="62" height="20" as="geometry" />
        </mxCell>
        <mxCell id="5H7elzML800JX2GymNLW-30" value="&lt;font color=&quot;#cccccc&quot; style=&quot;font-size: 9px;&quot;&gt;Business rule&lt;/font&gt;" style="text;html=1;strokeColor=none;fillColor=none;align=center;verticalAlign=middle;whiteSpace=wrap;rounded=0;" parent="1" vertex="1">
          <mxGeometry x="681" y="293" width="60" height="17" as="geometry" />
        </mxCell>
        <mxCell id="5H7elzML800JX2GymNLW-31" value="" style="rounded=0;whiteSpace=wrap;html=1;strokeColor=#CCCCCC;" parent="1" vertex="1">
          <mxGeometry x="620" y="347.5" width="80" height="20" as="geometry" />
        </mxCell>
        <mxCell id="5H7elzML800JX2GymNLW-32" value="&lt;font style=&quot;font-size: 9px;&quot;&gt;&lt;font color=&quot;#cccccc&quot;&gt;Helper&lt;/font&gt;&lt;br&gt;&lt;/font&gt;" style="text;html=1;strokeColor=none;fillColor=none;align=center;verticalAlign=middle;whiteSpace=wrap;rounded=0;" parent="1" vertex="1">
          <mxGeometry x="629.25" y="351" width="60" height="10" as="geometry" />
        </mxCell>
        <mxCell id="5H7elzML800JX2GymNLW-34" value="" style="rounded=0;whiteSpace=wrap;html=1;strokeColor=#CCCCCC;" parent="1" vertex="1">
          <mxGeometry x="627" y="390" width="60" height="30" as="geometry" />
        </mxCell>
        <mxCell id="5H7elzML800JX2GymNLW-35" value="&lt;font color=&quot;#cccccc&quot; style=&quot;font-size: 9px;&quot;&gt;Business domain&lt;/font&gt;" style="text;html=1;strokeColor=none;fillColor=none;align=center;verticalAlign=middle;whiteSpace=wrap;rounded=0;" parent="1" vertex="1">
          <mxGeometry x="627" y="390" width="60" height="30" as="geometry" />
        </mxCell>
        <mxCell id="5H7elzML800JX2GymNLW-37" value="&lt;font color=&quot;#cccccc&quot; style=&quot;font-size: 10px;&quot;&gt;JSE 6&lt;/font&gt;" style="text;html=1;strokeColor=none;fillColor=none;align=center;verticalAlign=middle;whiteSpace=wrap;rounded=0;" parent="1" vertex="1">
          <mxGeometry x="557" y="207" width="60" height="30" as="geometry" />
        </mxCell>
        <mxCell id="5H7elzML800JX2GymNLW-39" value="&lt;font style=&quot;font-size: 9px;&quot;&gt;Forward to error&amp;nbsp; page&amp;nbsp;&lt;/font&gt;" style="text;html=1;strokeColor=none;fillColor=none;align=center;verticalAlign=middle;whiteSpace=wrap;rounded=0;" parent="1" vertex="1">
          <mxGeometry x="377" y="410" width="120" height="30" as="geometry" />
        </mxCell>
        <mxCell id="5H7elzML800JX2GymNLW-40" value="&lt;font style=&quot;font-size: 9px;&quot;&gt;Render error page&lt;/font&gt;" style="text;html=1;strokeColor=none;fillColor=none;align=center;verticalAlign=middle;whiteSpace=wrap;rounded=0;" parent="1" vertex="1">
          <mxGeometry x="267" y="445" width="100" height="30" as="geometry" />
        </mxCell>
        <mxCell id="5H7elzML800JX2GymNLW-42" value="" style="endArrow=classic;html=1;rounded=0;exitX=0.5;exitY=0;exitDx=0;exitDy=0;" parent="1" source="5H7elzML800JX2GymNLW-3" edge="1">
          <mxGeometry width="50" height="50" relative="1" as="geometry">
            <mxPoint x="109" y="289" as="sourcePoint" />
            <mxPoint x="390" y="289" as="targetPoint" />
            <Array as="points">
              <mxPoint x="245" y="289" />
            </Array>
          </mxGeometry>
        </mxCell>
        <mxCell id="5H7elzML800JX2GymNLW-45" value="" style="endArrow=classic;html=1;rounded=0;entryX=0.5;entryY=0;entryDx=0;entryDy=0;" parent="1" target="5H7elzML800JX2GymNLW-14" edge="1">
          <mxGeometry width="50" height="50" relative="1" as="geometry">
            <mxPoint x="436" y="320" as="sourcePoint" />
            <mxPoint x="435" y="340" as="targetPoint" />
          </mxGeometry>
        </mxCell>
        <mxCell id="5H7elzML800JX2GymNLW-46" value="" style="endArrow=none;dashed=1;html=1;rounded=0;endFill=0;startArrow=classicThin;startFill=1;" parent="1" edge="1">
          <mxGeometry width="50" height="50" relative="1" as="geometry">
            <mxPoint x="434.87" y="450" as="sourcePoint" />
            <mxPoint x="434.87" y="370" as="targetPoint" />
          </mxGeometry>
        </mxCell>
        <mxCell id="5H7elzML800JX2GymNLW-71" value="" style="endArrow=classic;html=1;rounded=0;entryX=0.062;entryY=-0.001;entryDx=0;entryDy=0;entryPerimeter=0;strokeColor=#CCCCCC;" parent="1" edge="1">
          <mxGeometry width="50" height="50" relative="1" as="geometry">
            <mxPoint x="622" y="320" as="sourcePoint" />
            <mxPoint x="621.9599999999999" y="347.48" as="targetPoint" />
            <Array as="points" />
          </mxGeometry>
        </mxCell>
        <mxCell id="5H7elzML800JX2GymNLW-72" value="" style="endArrow=none;html=1;rounded=0;entryX=0.062;entryY=-0.001;entryDx=0;entryDy=0;entryPerimeter=0;endFill=0;dashed=1;startArrow=classicThin;startFill=1;strokeColor=#CCCCCC;" parent="1" edge="1">
          <mxGeometry width="50" height="50" relative="1" as="geometry">
            <mxPoint x="632" y="320" as="sourcePoint" />
            <mxPoint x="632" y="347.5" as="targetPoint" />
            <Array as="points" />
          </mxGeometry>
        </mxCell>
        <mxCell id="5H7elzML800JX2GymNLW-73" value="" style="endArrow=classic;html=1;rounded=0;entryX=0.836;entryY=-0.002;entryDx=0;entryDy=0;entryPerimeter=0;strokeColor=#CCCCCC;" parent="1" target="5H7elzML800JX2GymNLW-31" edge="1">
          <mxGeometry width="50" height="50" relative="1" as="geometry">
            <mxPoint x="686.72" y="315" as="sourcePoint" />
            <mxPoint x="686.72" y="342.5" as="targetPoint" />
            <Array as="points" />
          </mxGeometry>
        </mxCell>
        <mxCell id="5H7elzML800JX2GymNLW-74" value="" style="endArrow=none;html=1;rounded=0;entryX=0.836;entryY=-0.002;entryDx=0;entryDy=0;entryPerimeter=0;endFill=0;dashed=1;startArrow=classic;startFill=1;strokeColor=#CCCCCC;" parent="1" edge="1">
          <mxGeometry width="50" height="50" relative="1" as="geometry">
            <mxPoint x="694.86" y="315.5" as="sourcePoint" />
            <mxPoint x="695.14" y="347.5" as="targetPoint" />
            <Array as="points" />
          </mxGeometry>
        </mxCell>
        <mxCell id="5H7elzML800JX2GymNLW-75" value="" style="endArrow=classic;html=1;rounded=0;entryX=-0.021;entryY=0.398;entryDx=0;entryDy=0;exitX=0.973;exitY=0.326;exitDx=0;exitDy=0;exitPerimeter=0;entryPerimeter=0;fillColor=#bac8d3;strokeColor=#CCCCCC;" parent="1" source="5H7elzML800JX2GymNLW-28" target="5H7elzML800JX2GymNLW-30" edge="1">
          <mxGeometry width="50" height="50" relative="1" as="geometry">
            <mxPoint x="656.9" y="295" as="sourcePoint" />
            <mxPoint x="656.8599999999999" y="322.48" as="targetPoint" />
            <Array as="points" />
          </mxGeometry>
        </mxCell>
        <mxCell id="5H7elzML800JX2GymNLW-76" value="" style="endArrow=none;html=1;rounded=0;entryX=-0.021;entryY=0.398;entryDx=0;entryDy=0;exitX=0.973;exitY=0.326;exitDx=0;exitDy=0;exitPerimeter=0;entryPerimeter=0;dashed=1;endFill=0;startArrow=classicThin;startFill=1;strokeColor=#CCCCCC;" parent="1" edge="1">
          <mxGeometry width="50" height="50" relative="1" as="geometry">
            <mxPoint x="632" y="310" as="sourcePoint" />
            <mxPoint x="679" y="310" as="targetPoint" />
            <Array as="points" />
          </mxGeometry>
        </mxCell>
        <mxCell id="5H7elzML800JX2GymNLW-77" value="" style="endArrow=classic;html=1;rounded=0;entryX=0.062;entryY=-0.001;entryDx=0;entryDy=0;entryPerimeter=0;exitX=0.5;exitY=1;exitDx=0;exitDy=0;strokeColor=#CCCCCC;" parent="1" source="5H7elzML800JX2GymNLW-31" edge="1">
          <mxGeometry width="50" height="50" relative="1" as="geometry">
            <mxPoint x="659" y="370" as="sourcePoint" />
            <mxPoint x="659.1099999999999" y="389" as="targetPoint" />
            <Array as="points" />
          </mxGeometry>
        </mxCell>
        <mxCell id="5H7elzML800JX2GymNLW-78" value="" style="endArrow=classic;html=1;rounded=0;entryX=0;entryY=0.5;entryDx=0;entryDy=0;exitX=0.413;exitY=0.995;exitDx=0;exitDy=0;exitPerimeter=0;strokeColor=#CCCCCC;" parent="1" source="5H7elzML800JX2GymNLW-28" target="5H7elzML800JX2GymNLW-35" edge="1">
          <mxGeometry width="50" height="50" relative="1" as="geometry">
            <mxPoint x="602.04" y="319" as="sourcePoint" />
            <mxPoint x="602" y="346.48" as="targetPoint" />
            <Array as="points">
              <mxPoint x="600" y="405" />
            </Array>
          </mxGeometry>
        </mxCell>
        <mxCell id="5H7elzML800JX2GymNLW-79" value="" style="endArrow=classic;html=1;rounded=0;entryX=1.008;entryY=0.573;entryDx=0;entryDy=0;entryPerimeter=0;strokeColor=#CCCCCC;" parent="1" target="5H7elzML800JX2GymNLW-35" edge="1">
          <mxGeometry width="50" height="50" relative="1" as="geometry">
            <mxPoint x="730" y="315" as="sourcePoint" />
            <mxPoint x="730.28" y="347" as="targetPoint" />
            <Array as="points">
              <mxPoint x="730" y="407" />
            </Array>
          </mxGeometry>
        </mxCell>
        <mxCell id="5H7elzML800JX2GymNLW-80" value="" style="endArrow=classic;html=1;rounded=0;exitX=0.589;exitY=-0.026;exitDx=0;exitDy=0;exitPerimeter=0;strokeColor=#CCCCCC;" parent="1" source="5H7elzML800JX2GymNLW-28" edge="1">
          <mxGeometry width="50" height="50" relative="1" as="geometry">
            <mxPoint x="622" y="280" as="sourcePoint" />
            <mxPoint x="810" y="270" as="targetPoint" />
            <Array as="points">
              <mxPoint x="610" y="270" />
            </Array>
          </mxGeometry>
        </mxCell>
        <mxCell id="5H7elzML800JX2GymNLW-84" value="" style="endArrow=none;html=1;rounded=0;endFill=0;dashed=1;startArrow=classicThin;startFill=1;strokeColor=#CCCCCC;" parent="1" edge="1">
          <mxGeometry width="50" height="50" relative="1" as="geometry">
            <mxPoint x="620" y="290" as="sourcePoint" />
            <mxPoint x="820" y="280" as="targetPoint" />
            <Array as="points">
              <mxPoint x="620" y="280" />
              <mxPoint x="720" y="280" />
            </Array>
          </mxGeometry>
        </mxCell>
        <mxCell id="5H7elzML800JX2GymNLW-86" value="" style="endArrow=classic;html=1;rounded=0;exitX=0.973;exitY=0.326;exitDx=0;exitDy=0;exitPerimeter=0;strokeColor=#CCCCCC;" parent="1" edge="1">
          <mxGeometry width="50" height="50" relative="1" as="geometry">
            <mxPoint x="741" y="299.28999999999996" as="sourcePoint" />
            <mxPoint x="812.5" y="299.71000000000004" as="targetPoint" />
            <Array as="points" />
          </mxGeometry>
        </mxCell>
        <mxCell id="5H7elzML800JX2GymNLW-87" value="" style="endArrow=none;html=1;rounded=0;exitX=0.973;exitY=0.326;exitDx=0;exitDy=0;exitPerimeter=0;dashed=1;endFill=0;startArrow=classicThin;startFill=1;strokeColor=#CCCCCC;" parent="1" edge="1">
          <mxGeometry width="50" height="50" relative="1" as="geometry">
            <mxPoint x="741" y="309.99999999999994" as="sourcePoint" />
            <mxPoint x="812.5" y="310.42" as="targetPoint" />
            <Array as="points" />
          </mxGeometry>
        </mxCell>
        <mxCell id="5H7elzML800JX2GymNLW-89" value="" style="endArrow=classic;html=1;rounded=0;exitX=0.973;exitY=0.326;exitDx=0;exitDy=0;exitPerimeter=0;entryX=0;entryY=0.587;entryDx=0;entryDy=0;entryPerimeter=0;strokeColor=#CCCCCC;" parent="1" edge="1">
          <mxGeometry width="50" height="50" relative="1" as="geometry">
            <mxPoint x="700.25" y="352.99999999999994" as="sourcePoint" />
            <mxPoint x="815" y="354.31999999999994" as="targetPoint" />
            <Array as="points" />
          </mxGeometry>
        </mxCell>
        <mxCell id="5H7elzML800JX2GymNLW-91" value="" style="endArrow=none;html=1;rounded=0;exitX=0.973;exitY=0.326;exitDx=0;exitDy=0;exitPerimeter=0;entryX=0;entryY=0.587;entryDx=0;entryDy=0;entryPerimeter=0;startArrow=classicThin;startFill=1;endFill=0;dashed=1;strokeColor=#CCCCCC;" parent="1" edge="1">
          <mxGeometry width="50" height="50" relative="1" as="geometry">
            <mxPoint x="700.25" y="362.99999999999994" as="sourcePoint" />
            <mxPoint x="815" y="364.31999999999994" as="targetPoint" />
            <Array as="points" />
          </mxGeometry>
        </mxCell>
        <mxCell id="5H7elzML800JX2GymNLW-92" value="" style="endArrow=classicThin;dashed=1;html=1;rounded=0;startArrow=none;startFill=0;endFill=1;strokeColor=#CCCCCC;" parent="1" edge="1">
          <mxGeometry width="50" height="50" relative="1" as="geometry">
            <mxPoint x="930" y="590" as="sourcePoint" />
            <mxPoint x="930" y="530" as="targetPoint" />
          </mxGeometry>
        </mxCell>
        <mxCell id="5H7elzML800JX2GymNLW-94" value="" style="endArrow=classic;html=1;rounded=0;exitX=0.973;exitY=0.326;exitDx=0;exitDy=0;exitPerimeter=0;strokeColor=#CCCCCC;" parent="1" edge="1">
          <mxGeometry width="50" height="50" relative="1" as="geometry">
            <mxPoint x="997" y="309.99999999999994" as="sourcePoint" />
            <mxPoint x="1068.5" y="310.42" as="targetPoint" />
            <Array as="points" />
          </mxGeometry>
        </mxCell>
        <mxCell id="5H7elzML800JX2GymNLW-95" value="" style="endArrow=none;html=1;rounded=0;exitX=0.973;exitY=0.326;exitDx=0;exitDy=0;exitPerimeter=0;dashed=1;endFill=0;startArrow=classicThin;startFill=1;strokeColor=#CCCCCC;" parent="1" edge="1">
          <mxGeometry width="50" height="50" relative="1" as="geometry">
            <mxPoint x="993.5" y="329.99999999999994" as="sourcePoint" />
            <mxPoint x="1065" y="330.42" as="targetPoint" />
            <Array as="points" />
          </mxGeometry>
        </mxCell>
        <mxCell id="5H7elzML800JX2GymNLW-102" value="&lt;font style=&quot;font-size: 9px;&quot;&gt;Return value:&amp;nbsp;&lt;br&gt;void/primite/objedt&lt;/font&gt;" style="text;html=1;strokeColor=none;fillColor=none;align=center;verticalAlign=middle;whiteSpace=wrap;rounded=0;" parent="1" vertex="1">
          <mxGeometry x="681" y="140" width="60" height="30" as="geometry" />
        </mxCell>
        <mxCell id="5H7elzML800JX2GymNLW-103" value="&lt;font style=&quot;font-size: 9px;&quot;&gt;Return value:&amp;nbsp;&lt;br&gt;void/primite/objedt&lt;/font&gt;" style="text;html=1;strokeColor=none;fillColor=none;align=center;verticalAlign=middle;whiteSpace=wrap;rounded=0;" parent="1" vertex="1">
          <mxGeometry x="500" y="310" width="60" height="30" as="geometry" />
        </mxCell>
        <mxCell id="ljnqEVNHBfvt-kOhfmYu-1" value="" style="rounded=0;whiteSpace=wrap;html=1;" vertex="1" parent="1">
          <mxGeometry x="160" y="630" width="132" height="50" as="geometry" />
        </mxCell>
        <mxCell id="ljnqEVNHBfvt-kOhfmYu-2" value="" style="endArrow=classic;html=1;rounded=0;" edge="1" parent="1">
          <mxGeometry width="50" height="50" relative="1" as="geometry">
            <mxPoint x="232" y="647" as="sourcePoint" />
            <mxPoint x="284" y="646.76" as="targetPoint" />
          </mxGeometry>
        </mxCell>
        <mxCell id="ljnqEVNHBfvt-kOhfmYu-3" value="Request&amp;nbsp;" style="text;html=1;strokeColor=none;fillColor=none;align=center;verticalAlign=middle;whiteSpace=wrap;rounded=0;" vertex="1" parent="1">
          <mxGeometry x="162" y="637" width="50" height="20" as="geometry" />
        </mxCell>
        <mxCell id="ljnqEVNHBfvt-kOhfmYu-4" value="" style="endArrow=classic;html=1;rounded=0;dashed=1;" edge="1" parent="1">
          <mxGeometry width="50" height="50" relative="1" as="geometry">
            <mxPoint x="232" y="666.76" as="sourcePoint" />
            <mxPoint x="282" y="667" as="targetPoint" />
          </mxGeometry>
        </mxCell>
        <mxCell id="ljnqEVNHBfvt-kOhfmYu-5" value="Response" style="text;html=1;strokeColor=none;fillColor=none;align=center;verticalAlign=middle;whiteSpace=wrap;rounded=0;" vertex="1" parent="1">
          <mxGeometry x="160" y="657" width="60" height="20" as="geometry" />
        </mxCell>
      </root>
    </mxGraphModel>
  </diagram>
</mxfile>
